<svg width="108" height="90" viewBox="0 0 108 90" fill="none" xmlns="http://www.w3.org/2000/svg">
<path fill-rule="evenodd" clip-rule="evenodd" d="M26.9366 19.5554C12.1409 30.3035 0.0194861 39.1439 0.000211718 39.2007C-0.0189445 39.2575 1.26428 41.0872 2.852 43.2667L5.73879 47.2296L29.8174 29.7481L53.8961 12.2666L54.281 12.5382C54.4926 12.6876 65.3382 20.5217 78.3821 29.9473C91.426 39.373 102.148 47.1156 102.209 47.1533C102.308 47.2142 107.843 39.7109 107.999 39.3044C108.042 39.1924 105.577 37.3442 100.254 33.4987L92.4461 27.8571V13.9286V0H85.7657H79.0854L79.0552 9.0802L79.0249 18.1604L66.4654 9.0802C59.5576 4.08602 53.8906 0.00307167 53.872 0.00673309C53.8533 0.0103945 41.7324 8.80736 26.9366 19.5554ZM34.6228 32.5773L15.4075 46.4812L15.3775 68.2407L15.3477 90H29.2421H43.1366V75.5906V61.1811H53.8972H64.6578V75.5906V90H78.5519H92.4461V68.2687V46.5373L91.3523 45.7331C88.8239 43.8741 53.9174 18.6619 53.8796 18.6674C53.8568 18.6707 45.1912 24.9301 34.6228 32.5773Z" fill="white"/>
</svg>
