<svg width="36" height="25" viewBox="0 0 36 25" fill="none" xmlns="http://www.w3.org/2000/svg">
<path fill-rule="evenodd" clip-rule="evenodd" d="M0 1C0 0.447716 0.447715 0 1 0H35C35.5523 0 36 0.447715 36 1V4.76923C36 5.32151 35.5523 5.76923 35 5.76923H1C0.447716 5.76923 0 5.32152 0 4.76923V1ZM0 10.6154C0 10.0631 0.447715 9.61539 1 9.61539H35C35.5523 9.61539 36 10.0631 36 10.6154V14.3846C36 14.9369 35.5523 15.3846 35 15.3846H1C0.447716 15.3846 0 14.9369 0 14.3846V10.6154ZM1 19.2308C0.447715 19.2308 0 19.6785 0 20.2308V24C0 24.5523 0.447716 25 1 25H35C35.5523 25 36 24.5523 36 24V20.2308C36 19.6785 35.5523 19.2308 35 19.2308H1Z" fill="white"/>
</svg>
